# xmcd
#
# Track frame offsets: 
#        150
#        13585
#        23775
#        39117
#        59537
#        73477
#        92037
#        107027
#        118690
#        130580
#        144975
#        165257
#
# Disc length: 2417 seconds
#
# Revision: 1
# Processed by: cddbd v1.5.2PL0 Copyright (c) Steve Scherf et al.
# Submitted via: ExactAudioCopy v1.1
#
DISCID=99096f0c
DTITLE=Silvie Vartan - I Grandi Successi Originali cd1
DYEAR=1900
DGENRE=pop
TTITLE0=Irresistibilmente
TTITLE1=Buonasera, buonasera
TTITLE2=Blam blam blam
TTITLE3=Cheyenne
TTITLE4=Due mani
TTITLE5=Caro Mozart
TTITLE6=Come un ragazzo
TTITLE7=Le farfalle
TTITLE8=Abracadabra 
TTITLE9=La  gioventù (How do you do)
TTITLE10=Bidon d'eaù (Noi ieri noi oggil)
TTITLE11=Medicine Man
EXTD=
EXTT0=
EXTT1=
EXTT2=
EXTT3=
EXTT4=
EXTT5=
EXTT6=
EXTT7=
EXTT8=
EXTT9=
EXTT10=
EXTT11=
PLAYORDER=
